External Loads File
version=1
nRows=47
nColumns=13
Range=5.000000e-03-10 seconds
endheader
time 	forceRightX 	forceRightY 	forceRightZ 	pointRightX 	pointRightY 	pointRightZ 	forceLeftX 	forceLeftY 	forceLeftZ 	pointLeftX 	pointLeftY 	pointLeftZ 		
7.505000 -33.825528 262.485492 -0.000000 0.304533 0.473660 -0.161045 103.589017 43.742340 -0.000000 0.140484 0.180310 -0.399061
7.510000 -41.155708 292.493855 -0.000000 0.310431 0.466291 -0.160664 93.535664 25.129617 -0.000000 0.134016 0.186521 -0.399019
7.515000 -49.684659 322.854062 -0.000000 0.316678 0.458771 -0.160688 84.359222 11.100743 -0.000000 0.127871 0.193266 -0.399050
7.520000 -59.517837 352.096606 -0.000000 0.322446 0.450630 -0.160806 76.139828 1.483039 -0.000000 0.122038 0.200303 -0.399222
7.525000 -70.082018 378.904711 -0.000000 0.328020 0.442026 -0.160687 68.937088 -4.287559 -0.000000 0.116678 0.207749 -0.399373
7.530000 -80.865431 402.250348 -0.000000 0.333540 0.432881 -0.160743 62.793998 -6.825692 -0.000000 0.111768 0.215326 -0.399544
7.535000 -91.446176 421.547610 -0.000000 0.338610 0.423474 -0.160782 57.760402 -6.756782 -0.000000 0.107437 0.223723 -0.399667
7.540000 -101.418502 436.739686 -0.000000 0.343391 0.413586 -0.160829 53.845611 -4.728133 -0.000000 0.103426 0.232240 -0.399758
7.545000 -109.676812 448.446809 -0.000000 0.348223 0.403047 -0.160898 50.986514 -1.480533 -0.000000 0.099846 0.241123 -0.399840
7.550000 -118.040994 456.952318 -0.000000 0.351970 0.392768 -0.160179 49.068262 2.610174 -0.000000 0.096357 0.250114 -0.399201
7.555000 -125.169470 463.515008 -0.000000 0.355488 0.382264 -0.160198 47.887574 6.856105 -0.000000 0.093866 0.259523 -0.399309
7.560000 -130.478953 469.303387 -0.000000 0.358566 0.371555 -0.159898 47.186845 10.716205 -0.000000 0.091743 0.269284 -0.399323
7.565000 -134.438981 475.099484 -0.000000 0.361073 0.360846 -0.159625 46.638125 13.827438 -0.000000 0.090074 0.279173 -0.399237
7.570000 -136.144631 481.851744 -0.000000 0.362992 0.349946 -0.159313 46.001028 15.827352 -0.000000 0.088919 0.289352 -0.399209
7.575000 -135.197213 490.071212 -0.000000 0.364454 0.338826 -0.159033 45.158173 16.550530 -0.000000 0.088337 0.299753 -0.399199
7.580000 -131.653655 499.770566 -0.000000 0.365365 0.327738 -0.158702 44.043970 15.974850 -0.000000 0.088188 0.310369 -0.399030
7.585000 -125.391185 510.651047 -0.000000 0.365662 0.316782 -0.158476 42.596806 14.141010 -0.000000 0.088559 0.321184 -0.399033
7.590000 -116.025638 522.194278 -0.000000 0.365446 0.305848 -0.158234 40.788841 11.126459 -0.000000 0.089535 0.332136 -0.398978
7.595000 -104.093191 533.515661 -0.000000 0.364519 0.295134 -0.158003 38.632630 7.099359 -0.000000 0.090956 0.343068 -0.398923
7.600000 -89.470324 543.893190 -0.000000 0.363070 0.284492 -0.157369 36.193316 2.173001 -0.000000 0.092787 0.353999 -0.398779
7.605000 -72.258439 552.668399 -0.000000 0.360767 0.274137 -0.157394 33.520035 -3.519053 -0.000000 0.095257 0.365077 -0.398768
7.610000 -53.189112 559.266967 -0.000000 0.358015 0.263717 -0.157262 30.624603 -9.791159 -0.000000 0.098217 0.375960 -0.398740
7.615000 -33.409388 563.294605 -0.000000 0.354670 0.253616 -0.156892 27.494226 -16.395319 -0.000000 0.101604 0.386693 -0.398629
7.620000 -13.322307 564.612947 -0.000000 0.350827 0.243721 -0.156974 24.096816 -23.072658 -0.000000 0.105568 0.397219 -0.398596
7.625000 6.504241 563.201376 -0.000000 0.346486 0.233977 -0.156674 20.414098 -29.528281 -0.000000 0.110070 0.407440 -0.398569
7.630000 25.378832 559.176605 -0.000000 0.341554 0.224941 -0.156584 16.462246 -35.460749 -0.000000 0.115204 0.417514 -0.398456
7.635000 42.419177 552.834489 -0.000000 0.336145 0.216238 -0.156403 12.313387 -40.576971 -0.000000 0.120659 0.426884 -0.398434
7.640000 58.549763 544.500398 -0.000000 0.330270 0.207826 -0.156264 7.921958 -44.627995 -0.000000 0.126692 0.436053 -0.398396
7.645000 73.153404 534.728073 -0.000000 0.323836 0.199715 -0.156060 3.345944 -47.301184 -0.000000 0.133196 0.444628 -0.398381
7.650000 86.130034 524.163287 -0.000000 0.316945 0.192214 -0.155872 -1.355844 -48.291541 -0.000000 0.140233 0.452829 -0.398292
7.655000 97.617684 513.501154 -0.000000 0.309578 0.185231 -0.155682 -6.108968 -47.319013 -0.000000 0.147792 0.460567 -0.398375
7.660000 106.831125 503.676902 -0.000000 0.301782 0.178648 -0.155395 -10.733570 -44.168856 -0.000000 0.155238 0.467664 -0.398156
7.665000 115.031203 495.186300 -0.000000 0.293457 0.172806 -0.155167 -15.216460 -38.667640 -0.000000 0.163222 0.474183 -0.398129
7.670000 122.388245 488.527599 -0.000000 0.284840 0.167129 -0.154944 -19.419170 -30.724568 -0.000000 0.171539 0.479992 -0.398246
7.675000 128.846951 483.924062 -0.000000 0.275889 0.162334 -0.154637 -23.164502 -20.388729 -0.000000 0.179900 0.485242 -0.398256
7.680000 135.619872 480.806205 -0.000000 0.266605 0.157958 -0.154360 -26.289903 -7.881734 -0.000000 0.188648 0.489814 -0.398479
7.685000 142.348280 478.526838 -0.000000 0.257082 0.154342 -0.154245 -28.558934 6.240733 -0.000000 0.197352 0.493724 -0.398566
7.690000 149.724086 475.695014 -0.000000 0.247385 0.151342 -0.154236 -29.805631 21.321896 -0.000000 0.206337 0.496824 -0.398845
7.695000 157.302805 470.919140 -0.000000 0.237464 0.149070 -0.154228 -29.934193 36.611813 -0.000000 0.215170 0.499454 -0.398827
7.700000 164.122201 462.881912 -0.000000 0.227837 0.147680 -0.154379 -29.049108 51.412301 -0.000000 0.223825 0.501633 -0.398555
7.705000 170.124853 450.086933 -0.000000 0.218139 0.147006 -0.154505 -27.364468 65.321864 -0.000000 0.232196 0.503050 -0.398375
7.710000 174.720759 431.535772 -0.000000 0.208557 0.147192 -0.154700 -25.276204 78.238605 -0.000000 0.240385 0.503554 -0.398373
7.715000 177.148547 406.816389 -0.000000 0.199197 0.148148 -0.154800 -23.318483 90.332302 -0.000000 0.248278 0.503214 -0.398452
7.720000 176.772619 376.164289 -0.000000 0.190179 0.149760 -0.155033 -22.095384 101.976997 -0.000000 0.255757 0.501933 -0.398725
7.725000 173.789289 340.184959 -0.000000 0.181500 0.152125 -0.155161 -22.027950 113.781425 -0.000000 0.263199 0.499889 -0.399237
7.730000 167.850999 300.369891 -0.000000 0.173269 0.155193 -0.155247 -23.661909 126.484959 -0.000000 0.270255 0.496826 -0.399760
7.735000 159.515133 258.131309 -0.000000 0.165361 0.158881 -0.155419 -27.191349 140.899779 -0.000000 0.277191 0.492867 -0.400416
